<?xml version="1.0" standalone="no"?><!DOCTYPE svg PUBLIC "-//W3C//DTD SVG 1.1//EN" "http://www.w3.org/Graphics/SVG/1.1/DTD/svg11.dtd"><svg t="1703042523967" class="icon" viewBox="0 0 1024 1024" version="1.1" xmlns="http://www.w3.org/2000/svg" p-id="6887" width="32" height="32" xmlns:xlink="http://www.w3.org/1999/xlink"><path d="M507.733333 963.072c-216.576 0-392.704-176.128-392.704-392.704S291.157333 177.493333 507.733333 177.493333s392.704 176.128 392.704 392.704-176.128 392.874667-392.704 392.874667z m0-717.312c-178.858667 0-324.437333 145.578667-324.437333 324.437333 0 178.858667 145.578667 324.437333 324.437333 324.437334s324.437333-145.578667 324.437334-324.437334c0-178.858667-145.578667-324.437333-324.437334-324.437333z" fill="#2c2c2c" p-id="6888"></path><path d="M617.472 714.24c-8.704 0-17.408-3.413333-24.064-10.069333l-119.808-119.808v-160.597334c0-18.773333 15.36-34.133333 34.133333-34.133333s34.133333 15.36 34.133334 34.133333v132.266667l99.84 99.84a34.2016 34.2016 0 0 1-24.234667 58.368zM883.2 278.698667c-8.704 0-17.408-3.413333-24.064-10.069334l-102.4-102.4c-13.312-13.312-13.312-34.986667 0-48.298666s34.986667-13.312 48.298667 0l102.4 102.4c13.312 13.312 13.312 34.986667 0 48.298666-6.826667 6.656-15.530667 10.069333-24.234667 10.069334zM132.266667 287.232a34.2016 34.2016 0 0 1-24.064-58.368l102.4-102.4c13.312-13.312 34.986667-13.312 48.298666 0s13.312 34.986667 0 48.298667l-102.4 102.4c-6.826667 6.656-15.530667 10.069333-24.234666 10.069333z" fill="#2c2c2c" p-id="6889"></path></svg>